# xmcd
#
# Track frame offsets:
#	182
#	6762
#	19385
#	31657
#	33865
#	45422
#	51812
#	70552
#	73342
#	75907
#	81095
#	90442
#	97345
#	106872
#	113432
#	117787
#	129022
#	134867
#	147052
#	160792
#	181167
#	190282
#	198457
#	202137
#	204175
#	212825
#	229847
#	235215
#	255475
#	266452
#	271615
#	276202
#	288090
#	296900
#	300222
#
# Disc length: 4690 seconds
#
# Revision: 0
# Processed by: cddbd v1.5.2PL0 Copyright (c) Steve Scherf et al.
# Submitted via: EZCDAudioConverter 1.3.4.1
#
DISCID=dc125023
DTITLE=Tiny Tim - Songs Of An Impotent Troubador
DYEAR=1995
DGENRE=
TTITLE0=Welcome To Tiny Tim's World
TTITLE1=The Ice Skater's Song
TTITLE2=Poem For Elizabeth Taylor
TTITLE3=You're The Only One
TTITLE4=Tiny Tim's Search For The Magic Princess
TTITLE5=The Destruction Of The Captain America Collection
TTITLE6=Tiny Tim's Quest For Elizabeth Taylor
TTITLE7=When I'm Feeling Sad
TTITLE8=Jane
TTITLE9=Our Little Secret
TTITLE10=Stephanie
TTITLE11=Pretty Baby
TTITLE12=Don't Call Me Anymore
TTITLE13=Whispering Voices
TTITLE14=Heaven Only Knows
TTITLE15=Dear Tuesday
TTITLE16=Tiny Tim At The Cafe Bizarre
TTITLE17=Hello Ellie Halsey
TTITLE18=Tiny Tim At The Page Three
TTITLE19=If I Could Ride A Spaceship
TTITLE20=Tiny Tim Records His 78 Classics
TTITLE21=Spoiled
TTITLE22=Just Another Girl Called Judy
TTITLE23=Tiny Tim Receives ''Siddhartha'' From Miss Bluebell
TTITLE24=The Tragedy Of Romance
TTITLE25=Introducing Miss Dixie!
TTITLE26=Forever Miss Dixie
TTITLE27=Tiny Tim Meets The Eternal Princess
TTITLE28=Jessica Hahn 1
TTITLE29=I Used To Love Jessica Hahn, But Now I Love Stephanie Bohn
TTITLE30=Jessica Hahn 2
TTITLE31=Santa Claus Has Got The Aids This Year
TTITLE32=She Left Me With The Herpes
TTITLE33=The Ballad Of An Impotent Troubador
TTITLE34=Just What Do You Mean By 'Antichrist'?
EXTD=
EXTT0=
EXTT1=
EXTT2=
EXTT3=
EXTT4=
EXTT5=
EXTT6=
EXTT7=
EXTT8=
EXTT9=
EXTT10=
EXTT11=
EXTT12=
EXTT13=
EXTT14=
EXTT15=
EXTT16=
EXTT17=
EXTT18=
EXTT19=
EXTT20=
EXTT21=
EXTT22=
EXTT23=
EXTT24=
EXTT25=
EXTT26=
EXTT27=
EXTT28=
EXTT29=
EXTT30=
EXTT31=
EXTT32=
EXTT33=
EXTT34=
PLAYORDER=
